<svg xmlns="http://www.w3.org/2000/svg" width="24" height="24" viewBox="0 0 24 24">
  <g id="Group_8395" data-name="Group 8395" transform="translate(0)">
    <path id="Path_1573" data-name="Path 1573" d="M14.391,22.125H2.845a.953.953,0,0,1-.75-.357.979.979,0,0,1-.2-.821,10.358,10.358,0,0,1,9.855-8.2q.124,0,.249,0t.251,0a10.212,10.212,0,0,1,4.174.991.938.938,0,0,0,.8-1.693,12.2,12.2,0,0,0-1.411-.566,6.375,6.375,0,1,0-7.633,0A12.194,12.194,0,0,0,.061,20.565,2.848,2.848,0,0,0,2.845,24H14.391a.938.938,0,1,0,0-1.875ZM7.5,6.375a4.5,4.5,0,1,1,4.729,4.494l-.229,0-.227,0A4.506,4.506,0,0,1,7.5,6.375Z" transform="translate(0)" fill="#00b3a9"/>
    <path id="Path_1574" data-name="Path 1574" d="M329.969,325.516h-2.578v-2.578a.938.938,0,0,0-1.875,0v2.578h-2.578a.938.938,0,0,0,0,1.875h2.578v2.578a.938.938,0,0,0,1.875,0v-2.578h2.578a.938.938,0,0,0,0-1.875Z" transform="translate(-306.906 -306.906)" fill="#00b3a9"/>
  </g>
</svg>
