<svg id="Capa_1" data-name="Capa 1" xmlns="http://www.w3.org/2000/svg" viewBox="0 0 512 512"><title>ic_mute</title><path d="M193.12,103a19.9,19.9,0,0,0,9.14-2.22A114.14,114.14,0,0,1,253.31,88h3.77C319.91,88.93,371,140.93,371,204v30c0,31.73,10.38,53.55,20.1,71.52a20,20,0,0,0,35.18-19C416.6,268.6,411,254.28,411,234V204A156.19,156.19,0,0,0,275,49.23V20a20,20,0,0,0-40,0V49.27a153.59,153.59,0,0,0-51.06,15.95A20,20,0,0,0,193.12,103Z" transform="translate(0 0)"/><path d="M506.14,477.86l-472-472A20,20,0,0,0,5.86,34.14L112.47,140.75A154,154,0,0,0,99,204v30c0,26.65-9.67,43.57-21.92,65C65,320.09,51.34,344,44.43,380.91a60,60,0,0,0,59,71.09h92a60,60,0,0,0,120,0H407a60.1,60.1,0,0,0,14.87-1.85l56,56a20,20,0,0,0,28.28-28.28ZM255.39,472a20,20,0,0,1-20-20h40A20,20,0,0,1,255.39,472Zm-152-60a20,20,0,0,1-19.66-23.72c5.68-30.27,17.06-50.18,28.07-69.44C125.18,295.46,139,271.27,139,234V204a114.55,114.55,0,0,1,4.56-32.16L383.72,412Z" transform="translate(0 0)"/></svg>