<svg xmlns="http://www.w3.org/2000/svg" width="24" height="21.989" viewBox="0 0 24 21.989">
  <g id="Group_8394" data-name="Group 8394" transform="translate(-284 -440)">
    <path id="Path_1572" data-name="Path 1572" d="M301.4,458.246H289.614a.936.936,0,1,1,0-1.871H301.4a.937.937,0,0,0,.936-.936V445.8a.936.936,0,0,1,1.871,0v9.637a2.81,2.81,0,0,1-2.807,2.807Zm5.661-9.637a.936.936,0,0,0-.936.936v9.637a.937.937,0,0,1-.936.936H293.4a.936.936,0,0,0,0,1.871h11.789A2.81,2.81,0,0,0,308,459.182v-9.637a.936.936,0,0,0-.936-.936Zm-9.388,5.614H286.791A2.794,2.794,0,0,1,284,451.432v-8.641A2.794,2.794,0,0,1,286.791,440h10.886a2.794,2.794,0,0,1,2.791,2.791v8.641a2.794,2.794,0,0,1-2.791,2.791Zm-11.805-11.432v7.483l2.556-2.768a.935.935,0,0,1,1.36-.016l1.141,1.179,4.368-5.112a.936.936,0,0,1,.712-.328h0a.936.936,0,0,1,.712.333l1.874,2.228v-3a.921.921,0,0,0-.92-.92H286.791a.921.921,0,0,0-.92.92Zm.92,9.56h10.886a.921.921,0,0,0,.92-.92V448.7l-2.6-3.087-4.319,5.055a.935.935,0,0,1-1.384.043l-1.168-1.207-2.6,2.811a.911.911,0,0,0,.256.037Zm2.776-6.971a.936.936,0,1,0-.936-.936.936.936,0,0,0,.936.936Zm0,0" fill="#323c47"/>
  </g>
</svg>
