<svg xmlns="http://www.w3.org/2000/svg" width="24" height="23.997" viewBox="0 0 24 23.997">
  <path id="ic_newGroup" d="M297.9,436.727a8.907,8.907,0,0,0-1.87-1,4.771,4.771,0,0,0,1.552-3.147,7.056,7.056,0,0,1,8.947-.732.937.937,0,1,0,1.073-1.538,8.9,8.9,0,0,0-1.87-1,4.781,4.781,0,1,0-6.436-.011q-.2.075-.39.16a8.9,8.9,0,0,0-1.651.949,4.78,4.78,0,1,0-7.67,5.3,9.015,9.015,0,0,0-5.444,5.608,2.812,2.812,0,0,0,2.677,3.674h8.155a.937.937,0,0,0,0-1.875h-8.155a.938.938,0,0,1-.893-1.225A7.233,7.233,0,0,1,292.795,437a7.011,7.011,0,0,1,4.031,1.264.937.937,0,1,0,1.073-1.537Zm4.619-13.856a2.906,2.906,0,1,1-2.906,2.906,2.909,2.909,0,0,1,2.906-2.906Zm-9.7,6.415a2.906,2.906,0,1,1-2.906,2.906,2.909,2.909,0,0,1,2.906-2.906ZM308,440.541a.937.937,0,0,1-.937.937h-2.578v2.578a.937.937,0,1,1-1.875,0v-2.578h-2.578a.937.937,0,0,1,0-1.875h2.578v-2.578a.937.937,0,0,1,1.875,0V439.6h2.578a.937.937,0,0,1,.938.938Zm0,0" transform="translate(-284.001 -420.996)" fill="#00b3a9"/>
</svg>
