<svg xmlns="http://www.w3.org/2000/svg" width="17.5" height="20" viewBox="0 0 17.5 20">
  <g id="Group_8210" data-name="Group 8210" transform="translate(-372 -483)" opacity="0.66">
    <path id="Path_1550" data-name="Path 1550" d="M612.063,728.281a.781.781,0,1,1-.781-.781.781.781,0,0,1,.781.781Zm0,0" transform="translate(-226.078 -231.766)" fill="#323c47"/>
    <path id="Path_1551" data-name="Path 1551" d="M388.719,497.141a.781.781,0,0,0,.781-.781v-2.891a3.128,3.128,0,0,0-3.125-3.125h-.939v-2.755a4.689,4.689,0,0,0-9.375,0v2.755h-.936A3.128,3.128,0,0,0,372,493.469v6.406A3.128,3.128,0,0,0,375.125,503h11.25a3.128,3.128,0,0,0,3.125-3.125.781.781,0,0,0-1.562,0,1.564,1.564,0,0,1-1.562,1.563h-11.25a1.564,1.564,0,0,1-1.562-1.562v-6.406a1.564,1.564,0,0,1,1.563-1.562h11.25a1.564,1.564,0,0,1,1.563,1.563v2.891a.781.781,0,0,0,.781.781Zm-4.845-6.8h-6.25v-2.755a3.127,3.127,0,0,1,6.25,0Zm0,0" fill="#323c47"/>
    <path id="Path_1552" data-name="Path 1552" d="M498.813,728.281a.781.781,0,1,1-.781-.781.781.781,0,0,1,.781.781Zm0,0" transform="translate(-118.727 -231.766)" fill="#323c47"/>
    <path id="Path_1553" data-name="Path 1553" d="M442.563,728.281a.781.781,0,1,1-.781-.781.781.781,0,0,1,.781.781Zm0,0" transform="translate(-65.406 -231.766)" fill="#323c47"/>
    <path id="Path_1554" data-name="Path 1554" d="M555.063,728.281a.781.781,0,1,1-.781-.781.781.781,0,0,1,.781.781Zm0,0" transform="translate(-172.047 -231.766)" fill="#323c47"/>
  </g>
</svg>
