<svg xmlns="http://www.w3.org/2000/svg" xmlns:xlink="http://www.w3.org/1999/xlink" width="24" height="23.25" viewBox="0 0 24 23.25">
  <defs>
    <clipPath id="clip-path">
      <rect id="Rectangle_1902" data-name="Rectangle 1902" width="24" height="23.25" fill="#323c47"/>
    </clipPath>
  </defs>
  <g id="Group_8398" data-name="Group 8398" transform="translate(-284 -427)">
    <g id="Group_8399" data-name="Group 8399" transform="translate(284 427)">
      <g id="Group_8398-2" data-name="Group 8398" clip-path="url(#clip-path)">
        <path id="Path_1575" data-name="Path 1575" d="M302.309,450.248a1.92,1.92,0,0,1-1.1-.351l-5.028-3.5a.319.319,0,0,0-.364,0l-5.028,3.5a1.926,1.926,0,0,1-2.943-2.139l1.777-5.879a.319.319,0,0,0-.11-.343l-4.761-3.674a1.931,1.931,0,0,1,1.175-3.457h5.942a.308.308,0,0,0,.3-.2l2.007-5.9a1.925,1.925,0,0,1,3.645,0l2.007,5.9a.308.308,0,0,0,.3.2h5.945a1.93,1.93,0,0,1,1.174,3.456l-4.763,3.675a.319.319,0,0,0-.11.343l.156.517a.937.937,0,0,1-1.795.542l-.156-.516a2.2,2.2,0,0,1,.759-2.37l4.763-3.675c.021-.017.021-.021.02-.036a.089.089,0,0,0-.026-.058.073.073,0,0,0-.023,0h-5.945a2.186,2.186,0,0,1-2.076-1.473l-2.007-5.9c-.008-.024-.012-.035-.048-.035s-.04.01-.048.035l-2.007,5.9a2.186,2.186,0,0,1-2.076,1.473h-5.942a.074.074,0,0,0-.024,0,.088.088,0,0,0-.026.058c0,.016,0,.02.02.037l4.761,3.674a2.2,2.2,0,0,1,.759,2.37l-1.777,5.879c-.007.025-.011.036.019.057s.037.015.058,0l5.028-3.5a2.2,2.2,0,0,1,2.507,0l5.028,3.5c.021.014.029.021.058,0s.027-.033.019-.057l-.261-.863a.937.937,0,1,1,1.795-.542l.261.863a1.935,1.935,0,0,1-1.843,2.49Zm0,0" transform="translate(-284 -427)" fill="#323c47"/>
      </g>
    </g>
  </g>
</svg>
