<svg id="ic_tab_contacts" xmlns="http://www.w3.org/2000/svg" width="22.671" height="22.672" viewBox="0 0 22.671 22.672">
  <path id="Path_1519" data-name="Path 1519" d="M1797.935,1430.632a11.323,11.323,0,1,0,11.336,11.336,11.36,11.36,0,0,0-11.336-11.336Zm5.978,19.357a10.037,10.037,0,0,1-1.328.839v-2.173a.664.664,0,0,0-1.328,0v2.754a10,10,0,0,1-6.642,0v-2.754a.664.664,0,1,0-1.328,0v2.173a10.015,10.015,0,0,1-1.328-.839v-1.334a3.347,3.347,0,0,1,3.321-3.365h5.314a3.347,3.347,0,0,1,3.321,3.365Zm-9.3-9.349a3.321,3.321,0,0,1,6.64-.11,3.477,3.477,0,0,1-3.14,3.427,3.318,3.318,0,0,1-3.5-3.316Zm10.627,8.159a4.688,4.688,0,0,0-4.151-4.811q.13-.127.252-.266a5.01,5.01,0,0,0,1.242-3.307.655.655,0,0,0-.014-.136,4.649,4.649,0,0,0-9.285.361,4.607,4.607,0,0,0,1.431,3.355,4.687,4.687,0,0,0-4.088,4.8,10.007,10.007,0,1,1,14.612,0Zm0,0" transform="translate(-1786.599 -1430.632)" fill="#323c47"/>
</svg>
