<svg xmlns="http://www.w3.org/2000/svg" width="24.095" height="22.588" viewBox="0 0 24.095 22.588">
  <g id="ic_tab_chat" transform="translate(-2076.674 -319.371)">
    <g id="Group_8182" data-name="Group 8182" transform="translate(2076.674 319.371)">
      <g id="Group_8181" data-name="Group 8181" transform="translate(0 0)">
        <g id="Group_8180" data-name="Group 8180">
          <path id="Path_1509" data-name="Path 1509" d="M2100.769,352.547c0,5.777-5.375,10.588-12.095,10.588a13.326,13.326,0,0,1-4.491-.766,7.785,7.785,0,0,1-5.392,2.178.707.707,0,0,1-.5-1.205,4.292,4.292,0,0,0,1.134-4.044,9.864,9.864,0,0,1-2.753-6.751c0-5.791,5.3-10.588,12-10.588C2095.39,341.959,2100.769,346.767,2100.769,352.547Zm-1.4,0c0-5.06-4.8-9.186-10.692-9.186-5.838,0-10.6,4.126-10.6,9.186a8.495,8.495,0,0,0,2.493,5.9.7.7,0,0,1,.173.3,5.707,5.707,0,0,1-.43,4.2,6.373,6.373,0,0,0,3.168-1.879.7.7,0,0,1,.782-.179,11.883,11.883,0,0,0,4.412.842C2094.565,361.733,2099.366,357.607,2099.366,352.547Z" transform="translate(-2076.674 -341.959)" fill="#323c47"/>
          <path id="Path_1510" data-name="Path 1510" d="M2344.4,485.959a2.118,2.118,0,1,1-2.118,2.118A2.12,2.12,0,0,1,2344.4,485.959Zm.706,2.118a.706.706,0,1,0-.706.706A.707.707,0,0,0,2345.107,488.077Z" transform="translate(-2326.66 -477.488)" fill="#323c47"/>
          <path id="Path_1511" data-name="Path 1511" d="M2246.792,485.959a2.118,2.118,0,1,1-2.118,2.118A2.12,2.12,0,0,1,2246.792,485.959Zm.706,2.118a.706.706,0,1,0-.706.706A.707.707,0,0,0,2247.5,488.077Z" transform="translate(-2234.792 -477.488)" fill="#323c47"/>
          <path id="Path_1512" data-name="Path 1512" d="M2150.792,485.959a2.118,2.118,0,1,1-2.118,2.118A2.12,2.12,0,0,1,2150.792,485.959Zm.706,2.118a.706.706,0,1,0-.706.706A.706.706,0,0,0,2151.5,488.077Z" transform="translate(-2144.439 -477.488)" fill="#323c47"/>
        </g>
      </g>
    </g>
  </g>
</svg>
