<svg xmlns="http://www.w3.org/2000/svg" width="24.094" height="22.588" viewBox="0 0 24.094 22.588">
  <path id="ic_tab_chat_active" d="M2571.324,317.959c-6.7,0-12,4.8-12,10.588a9.864,9.864,0,0,0,2.753,6.751,4.293,4.293,0,0,1-1.134,4.044.707.707,0,0,0,.5,1.205,7.786,7.786,0,0,0,5.392-2.178,13.326,13.326,0,0,0,4.491.766c6.719,0,12.094-4.811,12.094-10.588S2578.04,317.959,2571.324,317.959Zm-5.647,11.882a1.294,1.294,0,1,1,1.294-1.294A1.3,1.3,0,0,1,2565.677,329.841Zm5.647,0a1.294,1.294,0,1,1,1.294-1.294A1.3,1.3,0,0,1,2571.324,329.841Zm5.741,0a1.294,1.294,0,1,1,1.294-1.294A1.3,1.3,0,0,1,2577.065,329.841Z" transform="translate(-2559.324 -317.959)" fill="#323c47"/>
</svg>
