<svg xmlns="http://www.w3.org/2000/svg" width="23.958" height="24" viewBox="0 0 23.958 24">
  <g id="ic_tab_settings" transform="translate(0 0.001)">
    <path id="Path_582" data-name="Path 582" d="M4063.562,2097.448a5.249,5.249,0,1,0,5.251,5.249A5.248,5.248,0,0,0,4063.562,2097.448Zm0,9a3.75,3.75,0,1,1,3.751-3.751A3.75,3.75,0,0,1,4063.562,2106.448Z" transform="translate(-4051.564 -2090.699)" fill="#323c47"/>
    <path id="Path_583" data-name="Path 583" d="M3957.841,1984.3l-1.763-.374a.68.68,0,0,1-.412-.375c0-.037,0-.037-.037-.075l-.487-1.162c0-.037,0-.037-.037-.075a.737.737,0,0,1,.037-.561l.974-1.5a1.752,1.752,0,0,0-.225-2.1l-.525-.525a1.8,1.8,0,0,0-2.1-.187l-1.5.975a.579.579,0,0,1-.3.075,1.345,1.345,0,0,1-.225-.037c-.036,0-.036-.037-.075-.037l-1.162-.487a.113.113,0,0,1-.075-.037.681.681,0,0,1-.375-.412l-.376-1.762a1.756,1.756,0,0,0-1.651-1.317h-.749a1.757,1.757,0,0,0-1.65,1.312l-.374,1.763a.68.68,0,0,1-.375.411c-.037,0-.037,0-.076.037l-1.161.487c-.037,0-.037,0-.075.037s-.113.037-.226.037a.487.487,0,0,1-.3-.075l-1.5-.975a1.753,1.753,0,0,0-2.1.225l-.525.525a1.7,1.7,0,0,0-.224,2.1l.974,1.5a.937.937,0,0,1,.038.562c0,.037-.038.037-.038.075l-.488,1.164a.037.037,0,0,1-.037.037.678.678,0,0,1-.412.375l-1.726.376a1.748,1.748,0,0,0-1.35,1.65v.75a1.759,1.759,0,0,0,1.312,1.651l1.762.375a.683.683,0,0,1,.413.375c0,.037,0,.037.036.075l.487,1.162c0,.037,0,.037.037.075a.739.739,0,0,1-.037.562l-.974,1.5a1.651,1.651,0,0,0,.224,2.061l.526.525a1.751,1.751,0,0,0,2.1.225l1.5-.975a.588.588,0,0,1,.3-.075,1.4,1.4,0,0,1,.225.037c.036,0,.036.037.075.037l1.162.487a.117.117,0,0,1,.075.037.683.683,0,0,1,.375.412l.375,1.762a1.722,1.722,0,0,0,1.651,1.318h.749a1.757,1.757,0,0,0,1.65-1.312l.376-1.762a.682.682,0,0,1,.375-.412c.037,0,.037,0,.075-.036l1.162-.487c.037,0,.037,0,.075-.037s.112-.037.225-.037a.485.485,0,0,1,.3.075l1.5.975a1.8,1.8,0,0,0,.9.261h0a1.735,1.735,0,0,0,1.2-.487l.524-.525a1.751,1.751,0,0,0,.225-2.1l-.976-1.5a.946.946,0,0,1-.036-.562c0-.037.036-.037.036-.075l.488-1.162a.114.114,0,0,1,.037-.075.677.677,0,0,1,.412-.375l1.725-.375a1.723,1.723,0,0,0,1.312-1.65v-.75A1.669,1.669,0,0,0,3957.841,1984.3Zm-.188,2.4a.248.248,0,0,1-.149.187l-1.725.375a2.169,2.169,0,0,0-1.5,1.35l-.45,1.125a2.156,2.156,0,0,0,.112,2.025l.975,1.5c.036.037,0,.187-.037.225l-.525.525a.381.381,0,0,1-.149.037h-.076l-1.5-.975a2.264,2.264,0,0,0-2.025-.112l-1.126.45a2.245,2.245,0,0,0-1.349,1.5l-.374,1.761c0,.075-.112.15-.187.15h-.75a.247.247,0,0,1-.187-.15l-.375-1.762a2.172,2.172,0,0,0-1.351-1.5l-1.124-.45a2.471,2.471,0,0,0-2.062.112l-1.5.975h-.076c-.076,0-.112-.037-.151-.037l-.525-.525c-.037-.037-.075-.187-.037-.225l.975-1.5a2.156,2.156,0,0,0,.112-2.025l-.45-1.125a2.242,2.242,0,0,0-1.5-1.35l-1.762-.374a.251.251,0,0,1-.15-.187v-.75a.249.249,0,0,1,.15-.187l1.725-.375a2.17,2.17,0,0,0,1.5-1.35l.449-1.125a2.155,2.155,0,0,0-.111-2.025l-.975-1.5c-.036-.037,0-.187.036-.225l.526-.525a.391.391,0,0,1,.149-.037h.075l1.5.975a2.264,2.264,0,0,0,2.025.112l1.126-.45a2.246,2.246,0,0,0,1.349-1.5l.376-1.762c.075-.075.149-.15.224-.15h.75a.247.247,0,0,1,.187.15l.376,1.762a2.17,2.17,0,0,0,1.35,1.5l1.125.45a2.264,2.264,0,0,0,2.024-.112l1.5-.975h.075c.075,0,.112.037.149.037l.526.525c.036.037.075.187.036.225l-.975,1.5a2.152,2.152,0,0,0-.111,2.025l.449,1.125a2.245,2.245,0,0,0,1.5,1.35l1.762.375c.075,0,.149.112.149.187v.75Z" transform="translate(-3935.155 -1974.324)" fill="#323c47"/>
  </g>
</svg>
