<svg id="ic_tab_settings_active" xmlns="http://www.w3.org/2000/svg" width="23.958" height="24" viewBox="0 0 23.958 24">
  <path id="Path_1521" data-name="Path 1521" d="M4114.331,2656.268a3.75,3.75,0,1,0,3.748,3.749A3.75,3.75,0,0,0,4114.331,2656.268Z" transform="translate(-4102.33 -2648.019)" fill="#323c47"/>
  <path id="Path_1522" data-name="Path 1522" d="M3982.775,2515.753l-1.763-.374a.681.681,0,0,1-.412-.375c0-.037,0-.037-.037-.075l-.488-1.162c0-.037,0-.037-.037-.075a.749.749,0,0,1,.037-.562l.976-1.5a1.754,1.754,0,0,0-.225-2.1l-.525-.525a1.8,1.8,0,0,0-2.1-.187l-1.5.975a.582.582,0,0,1-.3.075,1.371,1.371,0,0,1-.225-.037c-.037,0-.037-.037-.075-.037l-1.162-.487a.12.12,0,0,1-.075-.038.682.682,0,0,1-.375-.412l-.375-1.762a1.757,1.757,0,0,0-1.651-1.317h-.75a1.755,1.755,0,0,0-1.65,1.312l-.373,1.763a.687.687,0,0,1-.375.412c-.037,0-.037,0-.076.037l-1.162.487c-.036,0-.036,0-.075.037s-.112.036-.225.036a.485.485,0,0,1-.3-.074l-1.5-.975a1.752,1.752,0,0,0-2.1.225l-.525.525a1.7,1.7,0,0,0-.224,2.1l.974,1.5a.945.945,0,0,1,.038.562c0,.037-.038.037-.038.075l-.488,1.164a.037.037,0,0,1-.037.037.681.681,0,0,1-.412.374l-1.727.376a1.749,1.749,0,0,0-1.349,1.65v.75a1.757,1.757,0,0,0,1.312,1.65l1.762.375a.682.682,0,0,1,.412.375c0,.037,0,.037.037.075l.487,1.162c0,.037,0,.037.037.075a.746.746,0,0,1-.037.561l-.976,1.5a1.652,1.652,0,0,0,.225,2.062l.525.525a1.752,1.752,0,0,0,2.1.225l1.5-.975a.585.585,0,0,1,.3-.075,1.367,1.367,0,0,1,.224.037c.037,0,.037.037.076.037l1.162.487a.111.111,0,0,1,.074.037.681.681,0,0,1,.375.412l.375,1.762a1.724,1.724,0,0,0,1.651,1.318h.75a1.757,1.757,0,0,0,1.65-1.312l.375-1.762a.686.686,0,0,1,.375-.413c.036,0,.036,0,.075-.037l1.162-.487c.037,0,.037,0,.075-.038s.112-.037.226-.037a.479.479,0,0,1,.3.075l1.5.975a1.8,1.8,0,0,0,.9.261,1.732,1.732,0,0,0,1.2-.487l.525-.525a1.754,1.754,0,0,0,.225-2.1l-.976-1.5a.946.946,0,0,1-.036-.562c0-.037.036-.037.036-.075l.488-1.162a.117.117,0,0,1,.036-.075.686.686,0,0,1,.412-.375l1.725-.375a1.723,1.723,0,0,0,1.313-1.65v-.75A1.67,1.67,0,0,0,3982.775,2515.753Zm-10.682,7.273a5.249,5.249,0,1,1,5.247-5.249A5.251,5.251,0,0,1,3972.093,2523.026Z" transform="translate(-3960.091 -2505.779)" fill="#323c47"/>
</svg>
