<svg xmlns="http://www.w3.org/2000/svg" width="22.672" height="22.672" viewBox="0 0 22.672 22.672">
  <g id="ic_tab_contacts_active" transform="translate(-1812.796 -1431.96)">
    <path id="Path_1520" data-name="Path 1520" d="M2271.236,1454.632a11.323,11.323,0,1,0,11.336,11.336,11.36,11.36,0,0,0-11.336-11.336Zm5.978,19.357a10.009,10.009,0,0,1-1.328.839v-2.173a.664.664,0,1,0-1.328,0v2.754a10,10,0,0,1-6.642,0v-2.754a.664.664,0,1,0-1.328,0v2.173a9.993,9.993,0,0,1-1.328-.839v-1.334a3.347,3.347,0,0,1,3.321-3.365h5.314a3.347,3.347,0,0,1,3.321,3.365Zm-9.3-9.349a3.321,3.321,0,0,1,6.64-.11,3.477,3.477,0,0,1-3.14,3.427,3.318,3.318,0,0,1-3.5-3.316Zm10.627,8.159" transform="translate(-447.104 -22.672)" fill="#323c47"/>
  </g>
</svg>
