<svg xmlns="http://www.w3.org/2000/svg" width="198.423" height="113.921" viewBox="0 0 198.423 113.921">
  <g id="Group_8410" data-name="Group 8410" transform="translate(-51 -267)">
    <g id="Group_8419" data-name="Group 8419" transform="translate(51 267)">
      <g id="Group_8412" data-name="Group 8412" transform="translate(103.409 69.618)">
        <g id="Group_8410-2" data-name="Group 8410" transform="translate(0 41.143)">
          <path id="Path_1576" data-name="Path 1576" d="M562.283,1020.215v-3.16h.726v1.232c.29-.306.591-.6.9-.89l.494.533a18.092,18.092,0,0,0-1.481,1.537Z" transform="translate(-562.283 -1017.055)" fill="#989898"/>
        </g>
        <g id="Group_8411" data-name="Group 8411">
          <path id="Path_1577" data-name="Path 1577" d="M566.04,1001.044l-.427-.587a18.651,18.651,0,0,1,3.841-2.144l.276.672A17.865,17.865,0,0,0,566.04,1001.044Zm-3.032-1.761h-.726v-4.323h.726Zm8.723-.986-.195-.7a18.58,18.58,0,0,1,4.347-.668l.025.726A17.869,17.869,0,0,0,571.732,998.3Zm19.3-.652v-.726h4.323v.726Zm-2.162,0h-4.323v-.726h4.323Zm-6.483,0h-4.323v-.726h4.323Zm38.906,0h-4.323v-.726h4.323Zm-6.484,0h-4.323v-.726H614.8Zm-6.484,0H604v-.726h4.323Zm-6.485,0h-4.323v-.726h4.323Zm36.836,0h-2.252v-.726h2.252a18.023,18.023,0,0,0,2.024-.114l.081.721A18.77,18.77,0,0,1,638.671,997.644Zm-4.414,0h-4.323v-.726h4.323Zm-6.484,0H623.45v-.726h4.323Zm15.175-.494-.166-.706a17.744,17.744,0,0,0,3.971-1.449l.329.648A18.534,18.534,0,0,1,642.948,997.15Zm6.036-2.617-.4-.6a18.032,18.032,0,0,0,3.22-2.738l.531.494A18.723,18.723,0,0,1,648.983,994.533ZM563.009,992.8h-.726v-4.323h.726Zm90.725-2.814-.586-.428a17.9,17.9,0,0,0,2.071-3.682l.671.279A18.691,18.691,0,0,1,653.734,989.985Zm-90.725-3.671h-.726v-4.323h.726Zm93.6-2.241-.7-.2a17.911,17.911,0,0,0,.657-4.174l.726.027A18.619,18.619,0,0,1,656.613,984.073Zm-93.6-4.242h-.726v-.824a18.785,18.785,0,0,1,.337-3.546l.713.138a18.119,18.119,0,0,0-.324,3.408Zm93.52-2.246a17.891,17.891,0,0,0-.826-4.144l.69-.226a18.588,18.588,0,0,1,.859,4.313Zm-92.672-4.037-.692-.221a18.522,18.522,0,0,1,1.828-4l.619.377A17.846,17.846,0,0,0,563.857,973.548Zm91.07-2.077a17.986,17.986,0,0,0-2.221-3.6l.568-.451a18.7,18.7,0,0,1,2.31,3.741Zm-88.11-3.507-.571-.448a18.757,18.757,0,0,1,3.1-3.118l.451.568A18,18,0,0,0,566.816,967.964Zm84.478-1.668a18.014,18.014,0,0,0-3.327-2.606l.377-.619a18.671,18.671,0,0,1,3.462,2.711Zm-79.765-2.546-.381-.618a18.609,18.609,0,0,1,3.991-1.85l.226.69A17.875,17.875,0,0,0,571.529,963.75ZM646.1,962.7a17.711,17.711,0,0,0-4.025-1.285l.137-.713a18.523,18.523,0,0,1,4.19,1.338Zm-68.683-1.262-.142-.712a18.752,18.752,0,0,1,3.649-.357h.72v.726h-.72A18.046,18.046,0,0,0,577.414,961.438Zm62.56-.3q-.647-.046-1.3-.048h-2.992v-.726h2.993q.684,0,1.354.049Zm-45.364-.046h-4.323v-.726h4.323Zm-6.483,0H583.8v-.726h4.323Zm34.583,0v-.726h4.323v.726Zm-2.161,0h-4.323v-.726h4.323Zm-6.484,0h-4.323v-.726h4.323Zm-6.485,0h-4.323v-.726h4.323Zm-6.484,0h-4.323v-.726h4.323Zm32.422,0h-4.323v-.726h4.323Z" transform="translate(-562.283 -960.367)" fill="#989898"/>
        </g>
      </g>
      <g id="Group_8415" data-name="Group 8415" transform="translate(29.229 44.607)">
        <g id="Group_8413" data-name="Group 8413" transform="translate(63.668 41.141)">
          <path id="Path_1578" data-name="Path 1578" d="M549.917,985.75l-.639-.745a18.263,18.263,0,0,0-1.48-1.536l.492-.533c.308.284.609.581.9.889v-1.232h.726Z" transform="translate(-547.798 -982.591)" fill="#989898"/>
        </g>
        <g id="Group_8414" data-name="Group 8414">
          <path id="Path_1579" data-name="Path 1579" d="M522.057,966.547a17.935,17.935,0,0,0-3.7-2.047l.274-.672a18.68,18.68,0,0,1,3.846,2.129Zm3.8-1.661h-.726v-4.32h.726Zm-9.5-1.066a17.877,17.877,0,0,0-4.178-.629l.022-.726a18.67,18.67,0,0,1,4.347.654Zm-25.767-.637h-4.321v-.726h4.321Zm-6.48,0h-4.32v-.726h4.32Zm8.64,0v-.726h4.32v.726Zm17.28,0h-4.32v-.726h4.32Zm-6.48,0h-4.321v-.726h4.321Zm-25.942-.031a18.641,18.641,0,0,1-4.326-.772l.211-.695a17.932,17.932,0,0,0,4.157.742Zm-6.391-1.537a18.545,18.545,0,0,1-3.784-2.23l.439-.577a17.845,17.845,0,0,0,3.638,2.143Zm54.642-3.208h-.726v-4.321h.726Zm-60.1-.454a18.764,18.764,0,0,1-2.782-3.4l.613-.39a18.04,18.04,0,0,0,2.673,3.271Zm-3.852-5.327a18.524,18.524,0,0,1-1.425-4.159l.71-.152a17.8,17.8,0,0,0,1.369,4Zm63.948-.7h-.726v-4.32h.726Zm-65.706-5.636c-.053-.575-.081-1.162-.081-1.745a18.9,18.9,0,0,1,.187-2.647l.719.1a18.227,18.227,0,0,0-.18,2.545c0,.56.026,1.125.078,1.678Zm65.706-.844h-.726v-.9a18.1,18.1,0,0,0-.309-3.33l.713-.134a18.793,18.793,0,0,1,.322,3.464ZM461.4,939.929l-.7-.187a18.576,18.576,0,0,1,1.626-4.083l.638.347A17.791,17.791,0,0,0,461.4,939.929Zm62.911-.766a17.839,17.839,0,0,0-1.737-3.852l.621-.374A18.467,18.467,0,0,1,525,938.945Zm-60.231-4.953-.592-.419a18.777,18.777,0,0,1,2.942-3.265l.478.546A18.08,18.08,0,0,0,464.082,934.21Zm57.3-.643a18,18,0,0,0-2.964-3.01l.454-.567a18.761,18.761,0,0,1,3.083,3.132Zm-52.8-3.794-.411-.6a18.6,18.6,0,0,1,3.891-2.045l.259.677A17.905,17.905,0,0,0,468.579,929.773Zm48.111-.438a17.923,17.923,0,0,0-3.823-1.8l.228-.689a18.548,18.548,0,0,1,3.979,1.869Zm-42.353-2.164-.177-.7a18.734,18.734,0,0,1,4.358-.559l.007.726A18,18,0,0,0,474.337,927.17Zm36.487-.176a18.024,18.024,0,0,0-3.6-.362H506.6v-.726h.621a18.776,18.776,0,0,1,3.746.377Zm-19.342-.361h-4.32v-.726h4.32Zm-6.48,0h-4.321v-.726H485Zm19.44,0h-4.32v-.726h4.32Zm-6.48,0h-4.32v-.726h4.32Z" transform="translate(-460.075 -925.906)" fill="#989898"/>
        </g>
      </g>
      <g id="Group_8418" data-name="Group 8418" transform="translate(0 0)">
        <g id="Group_8416" data-name="Group 8416" transform="translate(92.896 41.141)">
          <path id="Path_1580" data-name="Path 1580" d="M549.917,924.29l-.639-.747a18.02,18.02,0,0,0-1.48-1.536l.492-.533c.308.284.61.581.9.888V921.13h.726Z" transform="translate(-547.798 -921.13)" fill="#989898"/>
        </g>
        <g id="Group_8417" data-name="Group 8417">
          <path id="Path_1581" data-name="Path 1581" d="M511.012,905.085a17.916,17.916,0,0,0-3.7-2.047l.274-.672a18.622,18.622,0,0,1,3.849,2.13Zm3.806-1.661h-.726V899.1h.726Zm-9.509-1.066a17.889,17.889,0,0,0-4.18-.627l.023-.726a18.668,18.668,0,0,1,4.35.652Zm-51.722-.634h-4.323V901h4.323Zm-6.484,0h-4.323V901H447.1Zm-6.485,0h-2.188a19.017,19.017,0,0,1-2.171-.125l.083-.721a18.212,18.212,0,0,0,2.087.12h2.188Zm41.068,0V901h4.323v.726Zm-2.161,0H475.2V901h4.323Zm-6.484,0h-4.323V901h4.323Zm-6.484,0h-4.323V901h4.323Zm-6.485,0h-4.323V901h4.323Zm38.906,0h-4.323V901h4.323Zm-6.484,0H488.17V901h4.323Zm-58.4-.507a18.524,18.524,0,0,1-4.126-1.521l.33-.647a17.8,17.8,0,0,0,3.964,1.462Zm-6.024-2.637a18.765,18.765,0,0,1-3.339-2.86l.533-.492a18.04,18.04,0,0,0,3.21,2.75Zm86.752-1.638h-.726v-4.323h.726Zm-91.487-2.925a18.639,18.639,0,0,1-2.144-3.841l.671-.276a17.885,17.885,0,0,0,2.061,3.691Zm91.487-3.56h-.726v-4.323h.726Zm-94.347-2.367a18.649,18.649,0,0,1-.668-4.345l.725-.025a17.916,17.916,0,0,0,.642,4.177Zm94.347-4.117h-.726v-.888a18.05,18.05,0,0,0-.312-3.346l.714-.135a18.83,18.83,0,0,1,.324,3.481Zm-94.24-2.37-.724-.06a18.611,18.611,0,0,1,.875-4.31l.689.229A17.856,17.856,0,0,0,420.577,881.6Zm92.687-3.916a17.909,17.909,0,0,0-1.742-3.851l.621-.376a18.585,18.585,0,0,1,1.813,4.009ZM422.2,875.494l-.657-.308a18.64,18.64,0,0,1,2.322-3.733l.568.454A17.926,17.926,0,0,0,422.2,875.494Zm88.121-3.4a18.055,18.055,0,0,0-2.969-3.008l.453-.567a18.861,18.861,0,0,1,3.09,3.128Zm-84.472-1.755-.51-.516a18.683,18.683,0,0,1,3.471-2.7l.375.62A17.993,17.993,0,0,0,425.849,870.334Zm79.775-2.474a17.837,17.837,0,0,0-3.828-1.791l.228-.69a18.54,18.54,0,0,1,3.983,1.864Zm-74.564-1.106-.3-.662a18.55,18.55,0,0,1,4.2-1.322l.134.713A17.75,17.75,0,0,0,431.06,866.754Zm68.69-1.226a18.043,18.043,0,0,0-3.571-.357h-.655v-.726h.655a18.816,18.816,0,0,1,3.714.371Zm-62.559-.314-.049-.724q.638-.043,1.288-.044h3.058v.726h-3.058Q437.8,865.172,437.191,865.214Zm12.943-.042v-.726h4.323v.726Zm-2.161,0h-4.323v-.726h4.323Zm32.422,0h-4.323v-.726h4.323Zm-6.484,0h-4.323v-.726h4.323Zm-6.485,0H463.1v-.726h4.323Zm-6.484,0h-4.323v-.726h4.323Zm32.422,0H489.04v-.726h4.323Zm-6.485,0h-4.323v-.726h4.323Z" transform="translate(-419.803 -864.445)" fill="#989898"/>
        </g>
      </g>
    </g>
  </g>
</svg>
