<svg xmlns="http://www.w3.org/2000/svg" width="129.273" height="75.695" viewBox="0 0 129.273 75.695">
  <g id="Group_1807" data-name="Group 1807" transform="translate(-174.473 -186.182)">
    <g id="Group_1807-2" data-name="Group 1807" transform="translate(174.473 242.483)">
      <path id="Path_1047" data-name="Path 1047" d="M200.2,492.807a1.641,1.641,0,0,1-.962,2.3h0a7.441,7.441,0,0,1-2.281.344,4.424,4.424,0,0,1-3.687-1.468,6.313,6.313,0,0,1-1.166-4.03,5.768,5.768,0,0,1,1.312-4.124,4.856,4.856,0,0,1,3.687-1.375,5.739,5.739,0,0,1,1.541.209,3.591,3.591,0,0,1,1.333.687,3.389,3.389,0,0,1,.937,1.291,5.061,5.061,0,0,1,.354,2.02,9.082,9.082,0,0,1-.052.937q-.039.377-.107.777a.321.321,0,0,1-.314.265h-5.618a.317.317,0,0,0-.317.345,2.808,2.808,0,0,0,.647,1.634,2.579,2.579,0,0,0,1.982.667,4.21,4.21,0,0,0,1.526-.26,5.155,5.155,0,0,0,.8-.379.255.255,0,0,1,.358.11Zm-3.13-6.187a1.882,1.882,0,0,0-1.564.635,3.034,3.034,0,0,0-.591,1.523.156.156,0,0,0,.154.175H198.6a.158.158,0,0,0,.156-.149,2.51,2.51,0,0,0-.35-1.579A1.52,1.52,0,0,0,197.07,486.621Zm11.956,5.665a.777.777,0,0,0-.354-.667,4.286,4.286,0,0,0-.875-.458q-.521-.208-1.146-.427a4.289,4.289,0,0,1-1.146-.6,3.3,3.3,0,0,1-.875-.979,3.482,3.482,0,0,1,.562-3.884,3.864,3.864,0,0,1,2.645-.812,8.5,8.5,0,0,1,2.145.25,6.95,6.95,0,0,1,1.31.462.257.257,0,0,1,.125.308l-.219.712a1.059,1.059,0,0,1-1.313.707l-.216-.063a5.366,5.366,0,0,0-1.479-.209q-1.208,0-1.208.937a.692.692,0,0,0,.354.6,4.63,4.63,0,0,0,.875.427q.52.2,1.146.427a5,5,0,0,1,1.146.594,3.117,3.117,0,0,1,.875.948,2.858,2.858,0,0,1,.354,1.5,3.173,3.173,0,0,1-1.01,2.489,4.416,4.416,0,0,1-3.03.906,7.4,7.4,0,0,1-2.072-.281,6.884,6.884,0,0,1-1.384-.546.259.259,0,0,1-.111-.319l.271-.73a1.084,1.084,0,0,1,1.378-.651q.141.051.294.1a5.16,5.16,0,0,0,1.624.26,1.8,1.8,0,0,0,.969-.229A.838.838,0,0,0,209.026,492.286Zm10.971,0a.778.778,0,0,0-.354-.667,4.3,4.3,0,0,0-.875-.458q-.521-.208-1.146-.427a4.287,4.287,0,0,1-1.146-.6,3.3,3.3,0,0,1-.875-.979,3.481,3.481,0,0,1,.562-3.884,3.864,3.864,0,0,1,2.645-.812,8.5,8.5,0,0,1,2.145.25,6.957,6.957,0,0,1,1.311.462.267.267,0,0,1,.125.308l-.156.505a1.282,1.282,0,0,1-1.578.854l-.015,0a5.366,5.366,0,0,0-1.479-.209q-1.208,0-1.208.937a.692.692,0,0,0,.354.6,4.639,4.639,0,0,0,.875.427q.52.2,1.146.427a5.01,5.01,0,0,1,1.146.593,3.12,3.12,0,0,1,.875.948,2.857,2.857,0,0,1,.354,1.5,3.173,3.173,0,0,1-1.01,2.489,4.418,4.418,0,0,1-3.031.906,7.4,7.4,0,0,1-2.072-.281,6.881,6.881,0,0,1-1.384-.546.259.259,0,0,1-.111-.319l.169-.456a1.4,1.4,0,0,1,1.758-.829l.016.005a5.159,5.159,0,0,0,1.624.26,1.8,1.8,0,0,0,.969-.229A.838.838,0,0,0,220,492.286Zm6.67-6.706a.26.26,0,0,1,.145-.323,9.341,9.341,0,0,1,1.761-.5,12.755,12.755,0,0,1,2.395-.219,5.442,5.442,0,0,1,1.812.26,2.61,2.61,0,0,1,1.76,1.885,5.851,5.851,0,0,1,.177,1.5q0,.917-.062,1.843t-.073,1.823q-.011.9.052,1.739a6.683,6.683,0,0,0,.213,1.264.256.256,0,0,1-.245.329h-1.036a1.115,1.115,0,0,1-1.067-.79l-.2-.647h-.1a3.711,3.711,0,0,1-1.156,1.114,3.509,3.509,0,0,1-1.906.468,3.713,3.713,0,0,1-1.313-.218,2.806,2.806,0,0,1-1.645-1.583,3.2,3.2,0,0,1-.229-1.239,2.9,2.9,0,0,1,.427-1.614,3.086,3.086,0,0,1,1.229-1.062,6.1,6.1,0,0,1,1.916-.562,13.132,13.132,0,0,1,2.176-.105.334.334,0,0,0,.345-.3,2.338,2.338,0,0,0-.2-1.366q-.312-.51-1.4-.511a9.512,9.512,0,0,0-1.718.167q-.281.052-.532.113a1.072,1.072,0,0,1-1.288-.709Zm3.363,7.518a2.08,2.08,0,0,0,1.291-.365,2.581,2.581,0,0,0,.687-.744.159.159,0,0,0,.021-.081v-1.168a.157.157,0,0,0-.144-.155,7.367,7.367,0,0,0-1.1-.008,4.552,4.552,0,0,0-1.052.187,1.772,1.772,0,0,0-.729.417.93.93,0,0,0-.271.687,1.182,1.182,0,0,0,.344.906A1.327,1.327,0,0,0,230.031,493.1Zm17.3,2.062A4.209,4.209,0,0,1,246.1,498.5a5.058,5.058,0,0,1-3.437,1.073,10.569,10.569,0,0,1-2.364-.208l-.251-.063a1.111,1.111,0,0,1-.794-1.354l.228-.869a.253.253,0,0,1,.317-.179l.874.258a5.636,5.636,0,0,0,1.573.187,2.424,2.424,0,0,0,1.927-.614,2.616,2.616,0,0,0,.51-1.718v-.667H244.6a3.025,3.025,0,0,1-2.583.979,3.6,3.6,0,0,1-3.01-1.25,6.288,6.288,0,0,1-.989-3.915,6.01,6.01,0,0,1,1.333-4.228,5.024,5.024,0,0,1,3.874-1.437,13.681,13.681,0,0,1,2.385.187,11,11,0,0,1,1.51.364.31.31,0,0,1,.208.3Zm-4.5-2a1.8,1.8,0,0,0,1.134-.353,2.216,2.216,0,0,0,.648-1.036l.009-.053v-4.552a.154.154,0,0,0-.1-.146,4.308,4.308,0,0,0-1.506-.232,1.911,1.911,0,0,0-1.625.781,4.2,4.2,0,0,0-.583,2.489q0,2.108.961,2.815A1.991,1.991,0,0,0,242.831,493.16Zm16.29.265a1.007,1.007,0,0,1-.454,1.368,7.155,7.155,0,0,1-.82.315,7.443,7.443,0,0,1-2.281.344,4.423,4.423,0,0,1-3.687-1.468,6.313,6.313,0,0,1-1.166-4.03,5.768,5.768,0,0,1,1.312-4.124,4.855,4.855,0,0,1,3.687-1.375,5.748,5.748,0,0,1,1.541.208,3.589,3.589,0,0,1,1.333.688,3.388,3.388,0,0,1,.937,1.291,5.062,5.062,0,0,1,.354,2.02,9.1,9.1,0,0,1-.052.937q-.039.377-.107.776a.321.321,0,0,1-.314.265h-5.962a3.055,3.055,0,0,0,.675,1.979,2.579,2.579,0,0,0,1.982.667,4.21,4.21,0,0,0,1.526-.26,5.155,5.155,0,0,0,.8-.378.255.255,0,0,1,.358.109Zm-3.441-6.8a1.882,1.882,0,0,0-1.564.635,3.033,3.033,0,0,0-.591,1.523.156.156,0,0,0,.154.175h3.532a.158.158,0,0,0,.156-.149,2.511,2.511,0,0,0-.35-1.58A1.52,1.52,0,0,0,255.679,486.621Zm15.372,8.539a1.354,1.354,0,0,1-1.354-1.354v-4.561a3.494,3.494,0,0,0-.365-1.833,1.363,1.363,0,0,0-1.239-.562,1.953,1.953,0,0,0-1.3.448,2.486,2.486,0,0,0-.739,1.054.36.36,0,0,0-.021.123v5.331a1.354,1.354,0,0,1-1.354,1.354h-1.094a.26.26,0,0,1-.26-.26v-9.894a.26.26,0,0,1,.26-.26h.933a1.192,1.192,0,0,1,1.163.928l.1.447h.083a4.478,4.478,0,0,1,1.271-1.166,3.766,3.766,0,0,1,2.041-.5,4.214,4.214,0,0,1,1.375.208,2.345,2.345,0,0,1,1.021.688,3.127,3.127,0,0,1,.625,1.3,8.427,8.427,0,0,1,.209,2.031V494.9a.26.26,0,0,1-.26.26Zm6.738-10.414h0a1.354,1.354,0,0,1,1.354,1.354v7.707a1.354,1.354,0,0,1-1.354,1.354h-1.079a.275.275,0,0,1-.275-.275V486.1A1.354,1.354,0,0,1,277.789,484.746Zm1.415-3.032a1.532,1.532,0,1,1-1.532-1.532A1.532,1.532,0,0,1,279.2,481.714Zm5.126,3.032a1.613,1.613,0,0,1,1.613,1.613v4.3a4.1,4.1,0,0,0,.3,1.832,1.211,1.211,0,0,0,1.177.562,1.846,1.846,0,0,0,1.281-.458,2.812,2.812,0,0,0,.76-1.125V486.1a1.354,1.354,0,0,1,1.354-1.354h1.2a.153.153,0,0,1,.153.153v7.1a16.626,16.626,0,0,0,.083,1.677,11.231,11.231,0,0,0,.178,1.174.259.259,0,0,1-.252.315h-1.129a.8.8,0,0,1-.763-.562l-.3-.98H289.9a3.886,3.886,0,0,1-1.333,1.312,3.805,3.805,0,0,1-2.02.521,4.474,4.474,0,0,1-1.416-.208,2.322,2.322,0,0,1-1.041-.687,3.209,3.209,0,0,1-.636-1.291,8.011,8.011,0,0,1-.219-2.041v-6.217a.26.26,0,0,1,.26-.26Zm16.708,7.54a.778.778,0,0,0-.354-.667,4.3,4.3,0,0,0-.875-.458q-.521-.208-1.146-.427a4.285,4.285,0,0,1-1.146-.6,3.3,3.3,0,0,1-.875-.979,3.481,3.481,0,0,1,.562-3.884,3.864,3.864,0,0,1,2.645-.812,8.5,8.5,0,0,1,2.145.25,6.948,6.948,0,0,1,1.311.462.257.257,0,0,1,.125.307l-.219.711a1.059,1.059,0,0,1-1.314.707l-.215-.063a5.366,5.366,0,0,0-1.479-.209q-1.208,0-1.208.937a.692.692,0,0,0,.354.6,4.64,4.64,0,0,0,.875.427q.52.2,1.146.427a5,5,0,0,1,1.146.594,3.119,3.119,0,0,1,.875.948,2.858,2.858,0,0,1,.354,1.5,3.173,3.173,0,0,1-1.01,2.489,4.417,4.417,0,0,1-3.03.906,7.4,7.4,0,0,1-2.072-.281,6.88,6.88,0,0,1-1.384-.546.258.258,0,0,1-.111-.319l.271-.73a1.084,1.084,0,0,1,1.378-.651q.141.051.294.1a5.158,5.158,0,0,0,1.624.26,1.8,1.8,0,0,0,.969-.229A.838.838,0,0,0,301.038,492.286Zm-112.3-11.39a.315.315,0,0,0-.315-.315h-1.341a1.651,1.651,0,0,0-1.425.818l-3.919,6.473a.153.153,0,0,1-.262,0l-3.919-6.473a1.65,1.65,0,0,0-1.425-.818h-1.341a.315.315,0,0,0-.315.315v14.149a.153.153,0,0,0,.153.153h1.482a1.072,1.072,0,0,0,1.072-1.072v-7.9a.153.153,0,0,1,.286-.075l3.355,5.938a.8.8,0,0,0,.685.388h0a.722.722,0,0,1,.194,0,.8.8,0,0,0,.685-.388l3.355-5.938a.153.153,0,0,1,.286.075v7.9A1.072,1.072,0,0,0,187.1,495.2h1.482a.153.153,0,0,0,.153-.153V480.9Z" transform="translate(-174.473 -480.182)" fill="#00b3a9"/>
    </g>
    <g id="Group_1809" data-name="Group 1809" transform="translate(250.886 186.338)">
      <g id="Group_1808" data-name="Group 1808" transform="translate(0)">
        <path id="Path_1048" data-name="Path 1048" d="M589.091,221.3v-26.51a7.8,7.8,0,0,0-15.594,0v24.639a7.8,7.8,0,0,0,7.8,7.8h10.53A7.778,7.778,0,0,1,589.091,221.3Z" transform="translate(-573.497 -186.996)" fill="#00b3a9"/>
      </g>
    </g>
    <path id="Path_1049" data-name="Path 1049" d="M477.061,186.182a7.8,7.8,0,0,0-7.8,7.8v12.164a7.8,7.8,0,0,0,15.594,0V192.108a7.778,7.778,0,0,1,2.733-5.926h-10.53Z" transform="translate(-238.338)" fill="#00b3a9"/>
    <path id="Path_1050" data-name="Path 1050" d="M372.826,186.182a7.8,7.8,0,0,0-7.8,7.8v24.639a7.8,7.8,0,0,0,15.594,0v-26.51a7.777,7.777,0,0,1,2.733-5.926h-10.53Z" transform="translate(-154.064)" fill="#00b3a9"/>
  </g>
</svg>
